<svg width="987" height="746" viewBox="0 0 987 746" fill="none" xmlns="http://www.w3.org/2000/svg">
<path d="M325.746 519.048C326.497 517.142 326.987 515.121 327.111 512.953C328.256 493.294 310.089 496.485 299.334 490.755C289.289 485.402 288.866 472.988 288.149 462.039C287.196 447.381 286.333 437.002 277.427 425.285C258.414 400.267 262.898 372.939 252.825 343.885C246.316 325.115 230.986 310.565 214.162 303.709C209.176 301.676 203.372 300.141 197.258 302.187C186.142 305.903 180.174 319.365 181.105 329.208C182.036 339.044 187.405 347.057 189.035 356.65C190.665 366.243 186.689 379.469 175.972 384.956C170.597 387.706 163.344 388.94 161.037 394.121C160.005 396.436 160.496 398.725 161.218 400.714C164.41 409.54 171.816 415.756 174.63 424.729C177.947 435.307 173.762 443.365 170.236 453.035C168.657 457.377 167.845 462.577 169.971 466.612C173.897 474.05 183.474 472.067 187.963 478.712C193.305 486.623 184.106 499.164 176.446 508.809C168.787 518.453 162.414 533.092 171.348 537.46C174.128 538.822 177.772 538.662 181.037 539.187C195.713 541.527 200.704 556.544 203.987 569.974C207.529 584.453 221.274 589.166 230.563 597.73C241.037 607.38 244.382 626.311 261.877 618.022C273.857 612.35 279.306 597.883 286.091 586.41C293.524 573.837 301.437 561.411 306.158 547.13C309.836 536.513 321.669 529.415 325.746 519.048Z" fill="#E3E5FC"/>
<path d="M260.93 619.749C260.563 619.749 260.236 619.461 260.157 619.039L220.298 407.25C220.208 406.764 220.479 406.285 220.907 406.182C221.336 406.074 221.754 406.387 221.849 406.873L261.708 618.662C261.799 619.148 261.528 619.627 261.099 619.73C261.043 619.743 260.986 619.749 260.93 619.749Z" fill="white"/>
<path d="M235.538 480.612C235.493 480.612 235.442 480.605 235.397 480.599C234.968 480.509 234.681 480.042 234.76 479.556L241.889 434.539C241.968 434.053 242.379 433.734 242.808 433.817C243.237 433.906 243.524 434.373 243.445 434.859L236.316 479.876C236.249 480.305 235.916 480.612 235.538 480.612Z" fill="white"/>
<path d="M249.678 559.933C249.43 559.933 249.182 559.799 249.029 559.55L227.388 524.273C227.14 523.863 227.224 523.307 227.585 523.019C227.946 522.738 228.437 522.834 228.691 523.243L250.332 558.52C250.58 558.929 250.496 559.486 250.135 559.773C249.988 559.882 249.83 559.933 249.678 559.933Z" fill="white"/>
<path d="M562.255 637.33C722.479 637.33 852.367 633.021 852.367 627.705C852.367 622.389 722.479 618.08 562.255 618.08C402.03 618.08 272.143 622.389 272.143 627.705C272.143 633.021 402.03 637.33 562.255 637.33Z" fill="#E3E5FC"/>
<path d="M629.079 589.135C627.347 585.31 625.909 581.121 626.163 576.83C626.625 569.034 632.316 563.182 637.223 557.695C642.13 552.208 646.953 544.789 645.097 537.262C643.315 530.029 636.36 526.498 630.472 523.064C624.584 519.63 618.284 513.529 619.581 506.167C621.442 495.622 636.783 493.978 638.447 483.387C639.051 479.556 637.539 475.745 636.073 472.221C631.059 460.204 626.045 448.187 621.03 436.17C618.735 430.67 616.676 423.386 620.517 419.139C623.106 416.281 627.173 416.345 630.562 414.938C639.361 411.279 642 398.962 644.02 388.582C646.039 378.209 650.743 365.975 660.088 365.207C663.687 364.913 667.206 366.531 670.314 368.616C682.638 376.885 690.241 393.436 689.158 409.629C688.695 416.562 686.947 424.3 690.557 429.922C692.435 432.845 695.413 434.527 698.041 436.567C708.103 444.363 713.664 459.014 711.735 472.656C710.421 481.967 706.044 491.88 709.902 500.233C714.223 509.576 726.591 511.169 730.692 520.634C734.07 528.423 730.229 537.684 725.796 544.764C721.363 551.843 715.999 559.191 716.191 567.87C716.287 572.359 717.911 576.632 718.34 581.096C719.44 592.479 712.7 603.025 704.877 610.271C694.775 619.634 679.451 629.566 666.118 624.552C650.856 618.815 636.4 605.302 629.079 589.135Z" fill="#A7ADFF"/>
<path d="M678.707 626.803C678.3 626.803 677.951 626.445 677.917 625.978L665.723 454.723C665.689 454.231 666.016 453.796 666.45 453.757C666.936 453.738 667.268 454.084 667.302 454.582L679.496 625.838C679.53 626.33 679.203 626.765 678.769 626.803C678.752 626.803 678.729 626.803 678.707 626.803Z" fill="white"/>
<path d="M670.071 505.464C669.897 505.464 669.722 505.4 669.575 505.266C669.231 504.959 669.18 504.39 669.451 504.006L690.872 473.692C691.149 473.302 691.645 473.244 691.989 473.551C692.333 473.858 692.384 474.427 692.113 474.811L670.692 505.125C670.534 505.349 670.303 505.464 670.071 505.464Z" fill="white"/>
<path d="M675.187 564.557C675.012 564.557 674.837 564.493 674.691 564.359C674.347 564.052 674.296 563.483 674.567 563.099L695.988 532.785C696.264 532.395 696.761 532.337 697.105 532.644C697.449 532.951 697.5 533.52 697.229 533.904L675.808 564.218C675.65 564.442 675.418 564.557 675.187 564.557Z" fill="white"/>
<path d="M672.61 541.176C672.423 541.176 672.243 541.105 672.091 540.958L652.079 521.42C651.747 521.094 651.713 520.531 651.995 520.154C652.282 519.777 652.779 519.732 653.112 520.058L673.123 539.596C673.455 539.922 673.489 540.485 673.207 540.862C673.055 541.067 672.835 541.176 672.61 541.176Z" fill="white"/>
<path d="M681.262 580.341C680.19 577.821 679.09 575.154 679.282 572.366C679.553 568.471 682.243 565.395 684.939 562.958C691.07 557.414 698.126 553.141 703.602 546.772C709.079 540.402 712.812 530.962 710.156 522.597C708.063 516.01 702.344 510.99 701.966 503.999C701.459 494.745 710.212 488.753 714.324 480.74C717.748 474.069 717.872 465.928 719.947 458.58C722.023 451.231 727.719 443.832 734.414 445.213C741.78 446.729 744.392 457.173 744.482 465.666C744.572 474.159 744.166 484.02 749.874 489.514C751.848 491.413 754.42 492.584 755.948 494.956C757.336 497.118 757.618 499.919 757.86 502.58C759.191 517.391 760.24 533.591 752.886 545.921C751.205 548.741 749.067 551.402 748.481 554.747C747.037 563.016 755.638 570.243 754.459 578.569C753.455 585.63 746.247 588.923 742.463 594.647C738.165 601.145 738.532 610.514 734.172 616.954C727.674 626.554 709.225 628.511 700.709 621.239C691.058 612.989 686.276 592.102 681.262 580.341Z" fill="#F44E4E"/>
<path d="M711.56 626.854C711.521 626.854 711.476 626.848 711.431 626.842C711.002 626.758 710.709 626.298 710.776 625.805L729.891 494.63C729.959 494.144 730.331 493.799 730.805 493.888C731.233 493.972 731.527 494.432 731.459 494.925L712.344 626.1C712.277 626.541 711.938 626.854 711.56 626.854Z" fill="white"/>
<path d="M724.871 540.818C724.691 540.818 724.504 540.747 724.358 540.607C724.025 540.28 723.986 539.718 724.268 539.34L743.168 514.187C743.45 513.81 743.952 513.765 744.284 514.085C744.617 514.405 744.657 514.974 744.375 515.351L725.475 540.504C725.317 540.709 725.091 540.818 724.871 540.818Z" fill="white"/>
<path d="M716.958 589.806C716.67 589.806 716.394 589.627 716.253 589.32L705.164 564.851C704.967 564.41 705.119 563.866 705.508 563.643C705.903 563.412 706.371 563.591 706.58 564.033L717.669 588.501C717.866 588.943 717.714 589.486 717.324 589.71C717.206 589.774 717.082 589.806 716.958 589.806Z" fill="white"/>
<path d="M774.228 598.855C777.093 594.705 782.801 592.064 782.496 586.807C782.237 582.343 777.364 578.947 778.317 574.604C779.219 570.518 784.143 570.108 787.838 570.601C788.565 567.774 788.018 564.768 787.764 561.839C787.51 558.91 787.657 555.648 789.422 553.487C791.188 551.325 795.023 551.44 795.847 554.229C797.155 550.04 798.464 545.857 799.778 541.668C800.314 539.948 801.098 537.978 802.671 537.607C804.967 537.064 806.518 540.491 806.157 543.12C805.796 545.748 804.437 548.185 804.521 550.845C804.628 554.222 807.465 557.164 810.443 556.991C807.381 559.697 803.997 564.218 806.134 567.889C807.212 569.737 809.614 571.272 808.904 573.332C808.198 575.385 804.944 575.199 804.544 577.361C804.002 580.239 809.4 581.575 808.385 584.287C805.057 583.692 802.18 588.7 804.008 591.91C806.016 595.44 810.94 594.916 813.619 597.819C815.542 599.904 815.841 603.371 815.051 606.249C811.949 617.568 800.274 631.171 789.321 626.726C780.618 623.183 765.897 610.911 774.228 598.855Z" fill="#FDC510"/>
<path d="M792.367 628.402C792.35 628.402 792.327 628.402 792.305 628.402C791.87 628.364 791.543 627.935 791.571 627.436L795.683 565.229C795.711 564.736 796.038 564.372 796.535 564.397C796.969 564.436 797.296 564.864 797.268 565.363L793.156 627.571C793.128 628.038 792.778 628.402 792.367 628.402Z" fill="white"/>
<path d="M794.093 602.283C793.918 602.283 793.737 602.219 793.591 602.079L783.5 592.754C783.162 592.441 783.111 591.878 783.388 591.488C783.664 591.104 784.166 591.047 784.504 591.36L794.595 600.685C794.933 600.998 794.984 601.561 794.707 601.951C794.549 602.168 794.324 602.283 794.093 602.283Z" fill="white"/>
<path d="M793.737 619.5C793.506 619.5 793.275 619.385 793.122 619.167C792.846 618.783 792.903 618.214 793.241 617.901L809.18 603.307C809.518 603 810.015 603.057 810.297 603.441C810.573 603.825 810.517 604.394 810.178 604.707L794.239 619.301C794.087 619.436 793.912 619.5 793.737 619.5Z" fill="white"/>
<path d="M257.05 493.69C255.995 489.527 252.695 486.041 250.242 482.294C247.794 478.552 246.198 473.865 248.674 470.136C249.83 468.403 251.725 467.105 253.321 465.621C260.608 458.848 261.015 448.673 258.708 439.809C256.401 430.945 251.815 422.51 250.428 413.511C249.148 405.178 251.799 395.272 260.936 391.601C267.642 388.908 276.215 390.661 281.5 395.01C286.784 399.365 288.978 405.85 288.431 412.002C288.211 414.464 287.653 417.157 289.266 419.235C292.447 423.348 300.738 421.486 305.261 424.62C309.131 427.3 308.567 432.339 306.937 436.292C305.307 440.238 302.926 444.376 304.28 448.398C305.955 453.361 312.904 456.463 313.609 461.585C313.897 463.683 313.051 465.838 313.609 467.898C315.171 473.698 326.835 476.717 324.398 482.313C322.509 486.655 313.863 486.124 311.195 490.179C308.358 494.483 314.624 499.459 313.84 504.319C313.575 505.976 312.498 507.453 311.449 508.879C304.303 518.581 297.151 528.276 290.005 537.978C288.713 539.73 287.399 541.508 285.617 542.934C274.641 551.728 257.929 546.068 256.063 534.774C255.171 529.395 254.004 523.045 253.654 517.602C253.147 509.531 259.074 501.691 257.05 493.69Z" fill="#A7ADFF"/>
<path d="M280.189 452.17L278.607 452.276L287.838 623.77L289.42 623.664L280.189 452.17Z" fill="#4B369D"/>
<path d="M303.424 471.827L281.461 501.641L282.678 502.793L304.641 472.979L303.424 471.827Z" fill="#4B369D"/>
<path d="M264.83 517.302L263.771 518.639L283.428 538.645L284.486 537.308L264.83 517.302Z" fill="#4B369D"/>
<path d="M193.824 615.458C191.827 612.778 190.112 609.683 189.667 606.217C189.56 605.379 189.548 604.451 189.994 603.774C190.377 603.185 191.032 602.904 191.663 602.757C196.142 601.669 200.344 605.392 203.581 609.069C209.294 615.567 214.393 622.755 218.764 630.474C216.147 625.857 214.771 616.999 215.391 611.569C215.414 611.358 215.453 611.122 215.6 610.988C215.752 610.847 215.967 610.86 216.153 610.898C217.529 611.199 218.398 612.714 219.058 614.121C221.099 618.47 222.882 623.497 224.066 628.377C223.321 625.313 225.527 621.623 227.523 619.794C231.099 616.532 230.338 621.086 229.559 623.759C228.798 626.381 223.744 636.652 220.14 634.356C219.481 633.934 219.317 631.645 218.776 630.903C217.834 629.624 216.519 629.202 215.166 628.728C211.534 627.449 207.749 626.918 204.325 624.91C200.332 622.557 196.728 619.353 193.824 615.458Z" fill="#A7ADFF"/>
<path d="M623.157 623.637C623.614 618.355 623.602 613.456 625.131 608.301C625.644 606.562 626.377 604.707 627.832 603.914C628.109 603.761 628.436 603.658 628.712 603.799C628.955 603.921 629.107 604.196 629.231 604.471C637.15 621.674 615.898 631.35 606.202 618.412C605.605 617.613 605.041 616.699 604.956 615.65C604.804 613.731 606.417 612.075 608.103 611.851C609.79 611.627 611.442 612.497 612.835 613.59C616.524 616.487 618.977 620.951 621.324 625.281C618.052 619.704 616.366 612.957 616.563 606.268C616.592 605.264 616.89 603.978 617.776 603.895C618.199 603.857 618.588 604.132 618.927 604.426C621.341 606.53 622.7 609.9 623.207 613.309C623.715 616.711 623.45 620.197 623.157 623.637Z" fill="#F44E4E"/>
<path d="M294.038 593.931C294.252 593.937 294.466 594.001 294.686 594.136C295.374 594.558 295.628 595.517 295.792 596.387C297.286 604.336 297.247 602.386 296.502 612.817C298.07 606.306 297.45 607.444 300.383 601.567C300.952 600.422 301.584 599.252 302.571 598.568C308.973 594.123 302.774 613.814 301.691 616.072C297.675 624.45 289.864 626.522 282.283 623.439C275.634 620.734 269.283 614.863 266.903 607.182C266.688 606.492 266.531 605.622 266.987 605.097C267.303 604.739 267.794 604.688 268.24 604.682C272.255 604.675 276.017 606.99 279.091 609.919C282.159 612.855 284.703 616.424 287.591 619.583C289.638 621.821 294.156 621.693 296.976 622.077C301.776 622.736 303.671 620.625 307.839 617.843C308.747 617.236 309.74 616.686 310.794 616.699C311.849 616.711 312.966 617.46 313.163 618.636C313.282 619.333 313.067 620.05 312.797 620.696C309.384 628.869 300.084 627.769 295.983 621.246C292.075 615.023 289.554 604.662 291.426 597.199C291.804 595.69 292.853 593.905 294.038 593.931Z" fill="#FDC510"/>
<path d="M841.176 606.722C841.323 606.728 841.475 606.766 841.628 606.862C842.107 607.157 842.282 607.828 842.395 608.436C843.438 613.987 843.41 612.625 842.891 619.903C843.985 615.355 843.551 616.155 845.598 612.049C845.993 611.25 846.439 610.431 847.127 609.951C851.594 606.85 847.268 620.587 846.512 622.167C843.709 628.012 838.255 629.464 832.97 627.308C828.328 625.422 823.895 621.322 822.237 615.963C822.084 615.477 821.977 614.876 822.299 614.505C822.519 614.255 822.863 614.217 823.173 614.217C825.976 614.211 828.605 615.829 830.742 617.875C832.88 619.922 834.656 622.416 836.676 624.622C838.103 626.183 841.255 626.093 843.224 626.362C846.574 626.822 847.894 625.345 850.804 623.407C851.436 622.985 852.13 622.595 852.868 622.608C853.602 622.614 854.38 623.139 854.521 623.957C854.606 624.443 854.453 624.942 854.267 625.39C851.887 631.095 845.395 630.327 842.536 625.774C839.806 621.431 838.052 614.198 839.355 608.992C839.62 607.95 840.353 606.703 841.176 606.722Z" fill="#A7ADFF"/>
<path d="M406 301.593L470.805 219.54L461.646 243.785L409.813 301.593H406Z" fill="#4B369D"/>
<path d="M441.759 385.282L398.346 366.339C390.772 363.033 386.959 353.299 389.875 344.71L402.475 307.579C405.391 298.99 413.975 294.666 421.55 297.973L464.962 316.916C472.537 320.222 476.35 329.956 473.434 338.545L460.833 375.676C457.918 384.265 449.339 388.589 441.759 385.282Z" fill="#4B369D"/>
<path d="M571.217 248.466L596.812 199.657C596.812 199.657 606.795 193.204 604.657 201.889C602.52 210.574 579.931 252.668 579.931 252.668L571.217 248.466Z" fill="#4B369D"/>
<path d="M498.832 209.378L491.207 237.146L469.87 240.056C469.87 240.056 485.894 224.03 487.772 206.193C489.656 188.363 498.832 209.378 498.832 209.378Z" fill="#D4A79A"/>
<path d="M529.079 156.763C529.079 156.763 531.894 164.342 523.4 182.652C514.911 200.962 504.483 215.69 499.564 213.023C485.96 205.656 483.501 192.731 480.732 181.443C477.342 167.603 496.028 141.6 496.028 141.6L509.017 137.897L529.079 156.763Z" fill="#EAC2AB"/>
<path d="M484.353 165.295C484.353 165.295 482.977 176.563 482.96 190.185C482.96 190.697 482.92 191.119 482.633 191.509C481.922 192.462 476.569 182.293 476.169 181.507C473.541 176.378 469.525 170.11 471.115 163.9C471.561 162.167 472.362 160.536 472.503 158.746C472.762 155.369 470.467 153.227 469.937 150.195C469.44 147.381 470.106 144.171 470.873 141.51C472.334 136.458 475.3 130.926 479.373 128.067C482.582 125.816 485.3 126.916 488.51 125.65C490.202 124.985 490.963 122.823 492.102 121.256C493.857 118.851 496.71 117.751 499.463 117.668C502.858 117.56 507.759 118.327 510.653 120.553C514.336 123.386 514.702 130.875 518.182 132.966C518.78 133.324 519.468 133.407 520.14 133.478C526.631 134.194 532.79 133.861 537.991 138.901C546.203 146.857 540.574 174.996 528.459 167.034C527.071 166.12 525.892 164.853 524.567 163.824C518.194 158.854 510.1 167.181 505.808 154.614C505.041 152.37 491.792 151.57 491.617 157.703C491.397 165.71 484.353 165.295 484.353 165.295Z" fill="#4B369D"/>
<path d="M487.303 165.109C487.303 165.109 483.535 156.827 481.804 167.316C480.072 177.804 484.364 181.302 484.364 181.302L487.303 165.109Z" fill="#EAC2AB"/>
<path d="M391.11 553.384L371.776 583.961L362.097 577.68L383.941 547.136C383.941 547.143 389.661 549.707 391.11 553.384Z" fill="#D4A79A"/>
<path d="M395.887 621.84C395.402 622.493 391.685 621.502 391.121 621.406C385.301 620.427 376.31 619.257 371.86 614.524C367.529 609.913 365.318 602.955 361.668 597.692C359.097 593.989 355.515 591.367 352.261 588.476C348.674 585.285 359.638 566.361 363.953 570.543C367.444 573.933 364.472 580.987 374.494 581.85C383.078 582.592 375.729 595.306 384.398 605.296C392.058 614.134 401.172 614.722 395.887 621.84Z" fill="#F3AA02"/>
<path d="M451.11 426.699C444.55 453.22 448.363 453.655 432.21 474.344C424.33 484.436 380.698 526.108 372.577 535.97C360.992 550.033 373.073 556.499 381.668 560.618C387.292 563.31 390.648 577.322 399.192 567.007C400.038 565.99 414.748 544.457 419.164 535.023C424.218 524.222 453.202 494.675 463.191 484.289C486.97 459.571 474.951 447.695 489.502 415.334C495.041 403.01 493.811 389.893 495.453 375.721C496.457 367.049 484.787 326.458 468.555 333.633C458.453 338.104 462.311 361.338 462.74 370.503C463.039 376.84 463.845 383.831 462.458 389.964C459.61 402.55 454.212 414.17 451.11 426.699Z" fill="#4B369D"/>
<path d="M502.373 566.955L509.711 604.81L498.803 608.89L493.214 568.874C493.219 568.88 498.888 565.676 502.373 566.955Z" fill="#EAC2AB"/>
<path d="M554.381 619.73C554.381 619.73 546.22 622.889 530.574 624.207C514.928 625.524 497.466 626.183 494.296 623.548C491.121 620.913 489.079 598.536 494.296 598.536C499.514 598.536 501.538 607.093 510.737 599.457C518.617 592.914 524.911 605.251 538.628 608.538C552.345 611.825 557.895 613.143 554.381 619.73Z" fill="#FDC510"/>
<path d="M529.965 581.697C529.44 580.309 528.064 579.273 526.868 578.192C515.943 568.318 521.646 553.327 520.36 540.095C516.349 498.87 523.253 474.753 509.581 432.64C500.275 403.982 497.765 385.071 495.515 353.235C494.731 342.184 514.037 327.903 499.311 331.062C492.334 332.559 485.447 332.265 478.493 330.883C474.832 330.154 478.566 328.805 474.832 330.154C462.114 334.759 452.65 360.577 452.492 370.522C452.136 392.816 467.229 407.449 471.352 426.948C478.594 461.195 489.976 485.421 487.004 513.599C485.549 527.406 483.857 541.176 482.232 554.958C481.285 562.997 475.357 580.61 479.333 587.887C484.793 597.877 509.119 589.41 517.246 589.186C523.355 589.013 531.747 586.41 529.965 581.697Z" fill="#5A54FF"/>
<path d="M502.232 278.288C498.543 261.315 502.548 232.766 491.995 220.173C490.912 218.881 489.767 217.609 488.335 216.873C475.075 210.101 467.077 222.444 461.375 233.143C455.667 243.855 455.797 255.444 453.011 267.454C449.841 281.108 450.478 295.306 450.253 309.401C450.112 317.984 451.037 326.509 450.608 335.104C450.309 341.103 449.559 347.064 448.352 352.909C447.551 356.797 443.067 364.517 444.376 368.475C445.413 371.609 450.162 370.426 452.497 370.515C461.527 370.854 470.377 367.817 478.408 363.314C485.746 359.202 493.501 359.362 501.967 358.569C506.169 358.172 511.617 354.067 509.717 345.407C505.21 324.885 506.524 306.907 504.663 292.415C504.054 287.734 503.253 282.995 502.232 278.288Z" fill="#D7384E"/>
<path d="M478.701 242.109C478.701 242.109 497.579 290.951 506.761 297.532C515.943 304.112 523.896 303.172 540.083 291.155C556.276 279.138 570.833 264.787 572.373 263.15C573.913 261.513 587.19 259.722 588.351 253.224C589.513 246.727 594.561 225.705 589.699 229.83C584.838 233.955 580.647 247.565 576.597 247.801C572.548 248.038 578.284 233.744 574.601 236.047C570.918 238.349 570.658 242.135 569.333 245.352C568.007 248.569 569.756 252.195 561.707 260.189C553.659 268.183 527.336 289.051 519.762 287.497C512.187 285.937 484.437 239.654 483.304 236.11C482.164 232.574 478.701 242.109 478.701 242.109Z" fill="#EAC2AB"/>
<path d="M504.719 258.187C504.719 258.187 493.247 219.252 479.609 227.099C465.972 234.947 486.203 276.318 486.203 276.318L508.357 263.105L504.719 258.187Z" fill="#F44E4E"/>
<g opacity="0.75" clip-path="url(#clip0)">
<g filter="url(#filter0_d)">
<path d="M592.755 156.168L597.408 168.329C599.255 173.156 596.703 178.538 591.71 180.348L590.795 180.68L587.851 186.885C587.736 187.128 587.525 187.332 587.245 187.433C586.986 187.527 586.716 187.521 586.478 187.433L586.369 187.385L586.365 187.383L580.021 184.586L579.104 184.919C574.113 186.728 568.568 184.283 566.721 179.456L562.068 167.294C560.222 162.468 562.773 157.086 567.767 155.276L580.369 150.706C585.363 148.895 590.909 151.341 592.755 156.168Z" fill="#E3E5FC"/>
<path d="M586.524 173.239L591.687 169.019C592.237 168.555 593.077 168.5 593.63 168.985C594.38 169.642 594.341 170.682 593.712 171.251L586.154 178.59C585.54 179.202 584.8 179.671 583.982 179.968C582.945 180.344 581.818 180.429 580.722 180.213L577.585 179.597C576.861 179.455 575.826 179.603 575.133 179.826C575.132 179.825 572.502 172.951 572.502 172.951L576.359 171.552C576.861 171.37 577.405 171.321 577.937 171.411L581.07 171.936C581.247 171.966 581.428 171.95 581.596 171.889L584.751 170.745C585.558 170.453 586.464 170.875 586.776 171.688C586.986 172.238 586.871 172.825 586.524 173.239Z" fill="white"/>
<path d="M581.183 156.27C583.054 155.592 584.95 156.707 585.668 158.582C586.617 161.063 584.93 163.566 582.304 168.44C577.301 166.525 574.012 165.762 573.02 163.168C572.302 161.293 572.987 159.242 574.859 158.563C577.262 157.692 579.077 160.178 579.077 160.178C579.077 160.178 578.779 157.142 581.183 156.27Z" fill="white"/>
<path d="M572.502 172.951L575.133 179.826C575.338 180.367 575.07 180.963 574.533 181.158L571.61 182.218L568.229 173.382L571.152 172.322C571.691 172.127 572.295 172.408 572.502 172.951Z" fill="white"/>
<path d="M570.741 174.148C570.472 174.245 570.338 174.545 570.442 174.816C570.546 175.086 570.848 175.227 571.117 175.13C571.386 175.032 571.52 174.733 571.416 174.462C571.313 174.191 571.01 174.05 570.741 174.148Z" fill="#6F6F6F"/>
<path d="M591.348 168.615L587.364 171.871C587.341 171.75 587.308 171.629 587.263 171.511C586.848 170.429 585.637 169.865 584.563 170.254L581.408 171.398C581.324 171.429 581.233 171.437 581.145 171.422L578.013 170.896C577.393 170.792 576.756 170.849 576.171 171.061L572.718 172.313C572.298 171.815 571.6 171.601 570.964 171.831L568.041 172.891C567.772 172.989 567.638 173.287 567.742 173.558L571.122 182.394C571.226 182.666 571.528 182.806 571.797 182.709L574.72 181.649C575.341 181.424 575.723 180.838 575.723 180.209C576.301 180.079 577.002 180.012 577.495 180.109L580.633 180.725C581.821 180.959 583.044 180.867 584.17 180.458C585.062 180.135 585.854 179.633 586.525 178.966L594.074 171.635C594.924 170.858 594.955 169.46 593.969 168.596C593.244 167.96 592.118 167.968 591.348 168.615ZM574.645 180.002C574.747 180.272 574.613 180.57 574.345 180.667L571.909 181.55L568.904 173.696L571.34 172.813C571.609 172.716 571.911 172.856 572.015 173.127L574.645 180.002ZM593.357 170.861C593.352 170.865 593.348 170.869 593.344 170.873C593.344 170.873 585.783 178.215 585.782 178.217C585.216 178.78 584.547 179.204 583.794 179.477C582.845 179.821 581.814 179.899 580.812 179.701L577.675 179.085C577.003 178.953 576.145 179.035 575.447 179.197L573.177 173.265L576.547 172.043C576.965 171.891 577.419 171.851 577.862 171.925L580.994 172.451C581.26 172.496 581.533 172.471 581.784 172.38L584.938 171.236C585.476 171.042 586.081 171.323 586.288 171.865C586.495 172.404 586.227 173.005 585.69 173.2L580.737 174.996C580.468 175.093 580.334 175.392 580.438 175.663C580.541 175.934 580.844 176.075 581.113 175.977L586.065 174.181C586.385 174.066 586.669 173.872 586.89 173.62C586.89 173.62 592.027 169.422 592.029 169.421C592.405 169.104 592.959 169.083 593.291 169.374C593.788 169.809 593.773 170.484 593.357 170.861Z" fill="#6F6F6F"/>
<path d="M582.127 168.927C582.25 168.974 582.378 168.973 582.492 168.931C582.606 168.89 582.705 168.809 582.766 168.696C585.412 163.783 587.199 161.135 586.155 158.405C585.329 156.246 583.127 155.006 580.995 155.779C579.595 156.287 578.834 157.489 578.611 158.959C577.456 157.991 576.073 157.564 574.671 158.072C573.039 158.664 572.083 160.224 572.234 162.047C572.258 162.335 572.51 162.554 572.797 162.536C573.085 162.519 573.298 162.272 573.274 161.984C573.162 160.635 573.858 159.485 575.047 159.054C576.436 158.55 577.887 159.44 578.658 160.479C578.797 160.671 579.046 160.748 579.265 160.669C579.484 160.589 579.619 160.373 579.597 160.139C579.594 160.112 579.361 157.49 581.371 156.761C582.895 156.208 584.533 157.067 585.18 158.759C586.016 160.942 584.5 163.285 582.056 167.792C579.088 166.671 576.796 165.955 575.281 164.991C575.035 164.835 574.714 164.904 574.563 165.146C574.412 165.388 574.489 165.711 574.734 165.868C576.442 166.954 578.907 167.694 582.127 168.927Z" fill="#6F6F6F"/>
<path d="M573.271 163.504C573.002 163.602 572.868 163.901 572.971 164.172C573.075 164.443 573.378 164.584 573.647 164.486C573.915 164.389 574.05 164.09 573.946 163.819C573.842 163.548 573.54 163.407 573.271 163.504Z" fill="#6F6F6F"/>
</g>
</g>
<g clip-path="url(#clip1)">
<path d="M614.269 252.159C617.427 253.188 620.253 255.241 623.372 256.412C627.433 257.927 631.804 257.876 636.079 257.812C643.778 257.697 651.471 257.576 659.17 257.461C661.324 257.429 663.761 257.531 665.194 259.347C666.13 260.537 666.406 262.2 666.643 263.773C667.388 268.672 668.132 273.564 668.871 278.463C669.266 281.059 669.604 283.969 668.256 286.118C666.745 288.529 663.789 288.945 661.189 289.15C650.117 290.013 639.052 290.883 627.98 291.746C626.936 291.829 625.82 291.893 624.912 291.305C624.077 290.761 623.564 289.757 623.124 288.785C621.268 284.686 619.926 280.292 619.147 275.77C618.589 272.522 618.296 269.119 616.897 266.216C614.714 261.694 616.006 261.49 613.936 257.493C610.93 251.679 611.178 251.148 614.269 252.159Z" fill="#E3E5FC"/>
<path d="M649.367 284.001H640.089C637.715 284.001 635.769 281.795 635.769 279.102V268.582C635.769 265.89 637.715 263.683 640.089 263.683H649.367C651.742 263.683 653.688 265.89 653.688 268.582V279.102C653.688 281.795 651.742 284.001 649.367 284.001Z" fill="white"/>
<path d="M645.431 275.099H644.021C642.413 275.099 641.093 273.609 641.093 271.78V270.181C641.093 268.358 642.408 266.862 644.021 266.862H645.431C647.038 266.862 648.358 268.352 648.358 270.181V271.78C648.358 273.609 647.038 275.099 645.431 275.099Z" fill="#4B369D"/>
<path d="M644.726 275.157C642.109 275.157 639.965 277.587 639.965 280.554H649.48C649.486 277.587 647.343 275.157 644.726 275.157Z" fill="#4B369D"/>
</g>
<g clip-path="url(#clip2)">
<path d="M663.329 184.343C665.362 184.102 667.157 185.042 668.849 185.961C680.17 192.091 691.49 198.221 702.807 204.357C703.509 204.736 704.229 205.139 704.647 205.862C705.401 207.162 704.938 209.067 704.431 210.736C702.841 216.002 700.969 221.215 698.833 226.331C698.2 227.839 697.489 229.425 696.282 230.48C694.013 232.452 691.095 231.734 688.707 230.906C679.293 227.631 669.844 224.338 661.201 219.483C657.45 217.374 653.822 214.964 649.684 213.663C645.468 212.34 633.355 213.494 630.878 209.498C629.085 206.606 632.754 206.163 635.604 205.039C640.897 202.962 645.869 201.128 650.34 196.7C654.259 192.808 657.817 184.988 663.329 184.343Z" fill="#E3E5FC"/>
<path d="M662.977 207.467C664.503 208.206 666.509 207.303 667.457 205.448C668.406 203.594 667.937 201.491 666.411 200.751C664.885 200.011 662.879 200.915 661.931 202.769C660.982 204.624 661.451 206.727 662.977 207.467Z" fill="#4B369D"/>
<path d="M674.525 213.064C676.052 213.804 678.058 212.9 679.006 211.045C679.954 209.191 679.486 207.088 677.96 206.348C676.434 205.608 674.428 206.512 673.479 208.367C672.531 210.221 672.999 212.324 674.525 213.064Z" fill="#4B369D"/>
<path d="M686.605 218.918C688.131 219.658 690.137 218.754 691.085 216.9C692.034 215.045 691.565 212.942 690.039 212.202C688.513 211.463 686.507 212.367 685.558 214.221C684.61 216.075 685.078 218.178 686.605 218.918Z" fill="#4B369D"/>
</g>
<path d="M702.767 146.986C703.063 146.986 703.302 146.711 703.302 146.372C703.302 146.032 703.063 145.758 702.767 145.758C702.472 145.758 702.233 146.032 702.233 146.372C702.233 146.711 702.472 146.986 702.767 146.986Z" fill="white"/>
<g opacity="0.8" clip-path="url(#clip3)">
<path d="M605.851 136.956C606.336 135.019 607.872 133.714 609.352 132.497C619.235 124.344 629.118 116.191 639.005 108.044C639.616 107.538 640.257 107.023 641.1 106.898C642.615 106.669 644.283 107.763 645.709 108.813C650.211 112.117 654.562 115.66 658.726 119.41C659.954 120.518 661.228 121.724 661.816 123.196C662.912 125.958 661.194 128.363 659.556 130.247C653.09 137.669 646.594 145.117 638.88 151.28C635.531 153.954 631.936 156.41 629.227 159.722C626.469 163.096 623.308 174.538 618.594 175.386C615.182 176 616.049 172.502 615.974 169.509C615.843 163.955 615.832 158.779 613.151 153.145C610.792 148.203 604.528 142.205 605.851 136.956Z" fill="#E3E5FC"/>
<g clip-path="url(#clip4)">
<path d="M884.878 -96.985C882.706 -98.5784 879.896 -99.0862 877.293 -98.3645L786.532 -73.1954L791.295 -57.0014L871.045 -79.1168L871.486 357.98L759.036 389.164L631.615 355.965C630.145 355.584 628.615 355.583 627.154 355.96L499.8 388.915L387.287 357.516L386.846 -79.5797L496.903 -48.8724C498.416 -48.4418 500.007 -48.4403 501.511 -48.8256L628.943 -81.7969L704.549 -62.0921L708.994 -78.3611L631.156 -98.6403C629.685 -99.0205 628.155 -99.022 626.694 -98.6445L499.341 -65.6909L380.559 -98.8394C377.955 -99.566 375.146 -99.0636 372.977 -97.4743C370.808 -95.8851 369.54 -93.4031 369.543 -90.7591L370.002 363.848C370.005 367.603 372.568 370.913 376.279 371.952L497.362 405.742C498.876 406.165 500.466 406.174 501.971 405.78L629.402 372.808L756.9 406.024C757.635 406.21 758.379 406.311 759.132 406.312C759.936 406.313 760.731 406.204 761.5 405.995L882.516 372.436C886.233 371.404 888.789 368.098 888.785 364.344L888.327 -90.2642C888.324 -92.9072 887.05 -95.3916 884.878 -96.985Z" fill="#E1E6FB"/>
<path d="M810.713 111.71L784.774 111.685C770.473 111.671 758.824 100.329 758.81 86.4043L758.784 61.1483L741.491 61.1318L741.517 86.3877C741.54 109.598 760.953 128.5 784.791 128.523L810.73 128.547C825.031 128.561 836.681 139.904 836.695 153.828C836.709 167.752 825.082 179.073 810.781 179.059L629.207 178.886C605.369 178.863 585.994 197.727 586.017 220.938C586.041 244.148 605.453 263.05 629.292 263.073L715.756 263.155C730.057 263.169 741.706 274.512 741.72 288.436C741.734 302.361 730.108 313.681 715.807 313.667L473.708 313.436L473.725 330.273L715.824 330.504C739.661 330.527 759.037 311.663 759.013 288.452C758.99 265.242 739.577 246.34 715.739 246.317L629.275 246.234C614.974 246.221 603.324 234.878 603.31 220.953C603.296 207.029 614.923 195.709 629.224 195.722L810.798 195.896C834.636 195.919 854.012 177.054 853.988 153.844C853.964 130.635 834.551 111.733 810.713 111.71Z" fill="#E1E6FB"/>
<g clip-path="url(#clip5)">
<path d="M633.734 121.406C630.712 119.886 626.485 122.165 624.312 126.486C622.962 129.169 622.404 132.503 622.653 136.395C622.69 136.973 622.743 137.518 622.803 138.022C621.443 137.893 620.36 138.347 619.892 139.277C619.064 140.924 620.613 142.817 622.492 143.762C624.37 144.706 626.814 144.822 627.642 143.175C628.109 142.245 627.828 141.105 626.915 140.09C627.713 139.633 628.607 139.073 629.522 138.407C629.735 138.252 629.851 137.943 629.783 137.716C629.714 137.49 629.486 137.431 629.274 137.585C628.169 138.389 627.084 139.039 626.174 139.531C626.091 139.545 626.005 139.589 625.929 139.662C625.121 140.089 624.475 140.382 624.113 140.538C624.024 140.158 623.877 139.474 623.739 138.583C623.759 138.461 623.741 138.349 623.693 138.267C623.281 135.385 623.043 130.643 624.967 126.816C626.88 123.012 630.602 121.005 633.263 122.344C635.924 123.682 636.532 127.866 634.619 131.67C633.784 133.332 632.485 134.927 630.76 136.411C630.556 136.587 630.462 136.9 630.551 137.111C630.641 137.322 630.879 137.35 631.083 137.174C632.943 135.573 634.353 133.832 635.275 132C637.448 127.678 636.757 122.926 633.734 121.406ZM623.422 141.412C623.449 141.507 623.503 141.575 623.574 141.611C623.645 141.646 623.732 141.649 623.824 141.613C623.886 141.589 624.741 141.254 625.985 140.6C626.928 141.479 627.211 142.398 626.986 142.845C626.818 143.179 626.301 143.412 625.635 143.453C624.818 143.503 623.869 143.28 622.963 142.824C620.998 141.836 620.22 140.259 620.547 139.607C620.772 139.16 621.679 138.839 622.948 139.073C623.166 140.469 623.407 141.356 623.422 141.412Z" fill="#4B369D"/>
<path d="M631.507 125.836C630.988 125.575 630.377 125.561 629.74 125.795C629.518 125.877 629.34 126.156 629.344 126.418C629.348 126.68 629.533 126.826 629.755 126.744C630.217 126.574 630.659 126.584 631.035 126.773C631.988 127.252 632.206 128.75 631.521 130.112C630.836 131.474 629.504 132.192 628.551 131.713C627.598 131.234 627.38 129.736 628.065 128.374C628.182 128.142 628.32 127.923 628.476 127.725C628.651 127.501 628.681 127.191 628.543 127.032C628.404 126.874 628.151 126.926 627.975 127.149C627.761 127.423 627.571 127.725 627.41 128.045C626.465 129.923 626.765 131.99 628.08 132.651C629.394 133.312 631.232 132.321 632.177 130.442C633.121 128.563 632.821 126.496 631.507 125.836Z" fill="#4B369D"/>
<path d="M646.005 132.6C646.301 132.428 646.611 132.239 646.932 132.031C649.469 130.387 651.287 128.494 652.338 126.406C654.038 123.025 653.497 119.307 651.132 118.118C649.405 117.249 647.114 117.939 645.297 119.875C645.107 120.078 645.047 120.392 645.163 120.577C645.279 120.762 645.527 120.747 645.718 120.544C647.257 118.903 649.197 118.319 650.661 119.055C652.664 120.062 653.122 123.212 651.682 126.076C649.734 129.95 645.024 132.23 643.755 132.788C643.686 132.49 643.586 132.009 643.491 131.398C643.504 131.291 643.489 131.193 643.449 131.117C643.137 128.919 642.958 125.32 644.415 122.422C644.546 122.163 644.504 121.88 644.323 121.789C644.142 121.698 643.89 121.834 643.76 122.092C642.71 124.181 642.275 126.769 642.468 129.786C642.492 130.167 642.525 130.529 642.563 130.869C641.536 130.807 640.737 131.179 640.363 131.923C640.047 132.551 640.125 133.283 640.582 133.985C640.974 134.585 641.613 135.129 642.383 135.516C643.152 135.903 643.97 136.092 644.685 136.048C645.521 135.997 646.156 135.623 646.471 134.995C646.845 134.252 646.667 133.388 646.005 132.6ZM642.854 134.579C641.302 133.799 640.828 132.633 641.019 132.253C641.143 132.005 641.756 131.746 642.704 131.91C642.87 132.958 643.051 133.621 643.063 133.664C643.089 133.759 643.143 133.827 643.214 133.863C643.285 133.899 643.372 133.902 643.464 133.866C643.505 133.85 644.146 133.599 645.086 133.108C645.396 133.404 645.632 133.727 645.756 134.032C645.863 134.291 645.885 134.528 645.816 134.665C645.624 135.045 644.406 135.359 642.854 134.579Z" fill="#4B369D"/>
<path d="M649.42 121.522C648.368 120.993 646.897 121.786 646.141 123.29C645.385 124.794 645.625 126.448 646.677 126.977C647.729 127.506 649.2 126.713 649.956 125.209C650.713 123.705 650.472 122.051 649.42 121.522ZM647.149 126.039C646.458 125.692 646.3 124.607 646.797 123.62C647.293 122.633 648.259 122.112 648.949 122.459C649.639 122.806 649.797 123.892 649.301 124.879C648.804 125.866 647.839 126.386 647.149 126.039Z" fill="#4B369D"/>
<path d="M639.4 130.852L639.25 130.777C639.141 130.722 639.027 130.677 638.909 130.644C638.713 130.588 638.468 130.76 638.363 131.028C638.266 131.275 638.321 131.517 638.483 131.599C638.497 131.606 638.512 131.612 638.528 131.616C638.615 131.641 638.699 131.674 638.779 131.714L638.929 131.79L638.929 131.789C639.11 131.881 639.362 131.745 639.492 131.486C639.622 131.227 639.581 130.943 639.4 130.852Z" fill="#4B369D"/>
<path d="M631.244 144.37C631.244 144.369 631.243 144.369 631.243 144.369L630.808 144.154C630.627 144.064 630.375 144.201 630.245 144.461C630.116 144.719 630.158 145.001 630.338 145.092C630.339 145.092 630.339 145.092 630.34 145.093L630.774 145.308C630.956 145.398 631.208 145.26 631.338 145.001C631.467 144.742 631.425 144.46 631.244 144.37Z" fill="#4B369D"/>
<path d="M636.736 137.119L636.303 136.901C636.122 136.81 635.87 136.946 635.74 137.205C635.609 137.464 635.651 137.747 635.832 137.838L636.265 138.056C636.446 138.147 636.698 138.011 636.828 137.752C636.958 137.494 636.917 137.21 636.736 137.119Z" fill="#4B369D"/>
<path d="M637.572 131.129C637.545 130.877 637.343 130.761 637.122 130.869C636.919 130.969 636.717 131.093 636.523 131.237C636.312 131.394 636.198 131.704 636.269 131.929C636.297 132.017 636.35 132.08 636.416 132.113C636.518 132.164 636.653 132.147 636.781 132.052C636.923 131.946 637.071 131.855 637.22 131.782C637.441 131.673 637.599 131.381 637.572 131.129Z" fill="#4B369D"/>
<path d="M632.982 145.229C632.982 145.229 632.981 145.229 632.981 145.228L632.546 145.013C632.365 144.924 632.113 145.061 631.983 145.32C631.854 145.579 631.896 145.861 632.076 145.952C632.077 145.952 632.077 145.952 632.078 145.952L632.512 146.167C632.694 146.257 632.946 146.12 633.075 145.861C633.204 145.602 633.163 145.32 632.982 145.229Z" fill="#4B369D"/>
<path d="M629.507 143.51C629.506 143.509 629.506 143.509 629.505 143.509L629.071 143.294C628.889 143.204 628.637 143.341 628.508 143.601C628.379 143.859 628.42 144.141 628.601 144.232C628.601 144.232 628.602 144.233 628.602 144.233L629.037 144.448C629.218 144.538 629.471 144.4 629.6 144.141C629.729 143.882 629.687 143.6 629.507 143.51Z" fill="#4B369D"/>
<path d="M635.439 135.973C635.383 135.828 635.341 135.671 635.313 135.506C635.273 135.261 635.063 135.162 634.843 135.286C634.624 135.409 634.479 135.708 634.519 135.953C634.556 136.178 634.614 136.392 634.691 136.59C634.72 136.666 634.769 136.72 634.829 136.75C634.938 136.805 635.083 136.781 635.217 136.671C635.423 136.501 635.523 136.188 635.439 135.973Z" fill="#4B369D"/>
<path d="M635.477 133.889C635.537 133.716 635.609 133.544 635.693 133.378L635.706 133.352C635.838 133.094 635.8 132.809 635.62 132.715C635.619 132.714 635.618 132.714 635.616 132.713C635.437 132.623 635.187 132.756 635.056 133.012L635.037 133.049C634.923 133.275 634.824 133.509 634.744 133.745C634.662 133.984 634.721 134.208 634.874 134.285C634.895 134.296 634.918 134.304 634.942 134.308C635.145 134.348 635.384 134.16 635.477 133.889Z" fill="#4B369D"/>
<path d="M638.468 137.99L638.035 137.772C637.854 137.681 637.602 137.817 637.472 138.076C637.341 138.335 637.383 138.619 637.564 138.71L637.997 138.927C638.178 139.018 638.43 138.882 638.56 138.623C638.69 138.365 638.649 138.081 638.468 137.99Z" fill="#4B369D"/>
<path d="M643.252 141.591C643.197 141.385 643.127 141.188 643.044 141.005C642.95 140.798 642.71 140.778 642.508 140.958C642.306 141.139 642.218 141.453 642.311 141.66C642.377 141.804 642.432 141.96 642.475 142.123C642.502 142.221 642.557 142.29 642.628 142.326C642.725 142.374 642.851 142.361 642.975 142.277C643.189 142.13 643.313 141.823 643.252 141.591Z" fill="#4B369D"/>
<path d="M638.333 148.341C638.437 148.072 638.361 147.809 638.164 147.755C638.046 147.722 637.931 147.678 637.821 147.623L637.759 147.593C637.578 147.503 637.325 147.641 637.196 147.9C637.067 148.158 637.109 148.44 637.289 148.531C637.29 148.531 637.291 148.532 637.291 148.532L637.352 148.562C637.491 148.631 637.638 148.687 637.787 148.728C637.984 148.783 638.229 148.61 638.333 148.341Z" fill="#4B369D"/>
<path d="M640.443 147.75C640.412 147.5 640.208 147.388 639.987 147.501C639.832 147.58 639.674 147.646 639.518 147.697C639.295 147.77 639.111 148.043 639.107 148.308C639.105 148.471 639.172 148.593 639.276 148.645C639.34 148.678 639.419 148.683 639.504 148.655C639.702 148.591 639.902 148.507 640.098 148.407C640.319 148.295 640.473 148 640.443 147.75Z" fill="#4B369D"/>
<path d="M642.225 145.795C642.072 145.658 641.816 145.739 641.655 145.976C641.541 146.143 641.419 146.303 641.29 146.452C641.107 146.665 641.061 146.978 641.188 147.151C641.215 147.188 641.248 147.215 641.284 147.234C641.419 147.302 641.605 147.245 641.75 147.078C641.913 146.888 642.068 146.685 642.212 146.474C642.373 146.236 642.379 145.932 642.225 145.795Z" fill="#4B369D"/>
<path d="M643.178 144.386C643.245 144.142 643.297 143.896 643.334 143.653C643.376 143.379 643.232 143.18 643.012 143.207C642.793 143.234 642.582 143.477 642.541 143.75C642.512 143.942 642.47 144.136 642.418 144.328C642.355 144.554 642.419 144.754 642.562 144.826C642.592 144.841 642.625 144.85 642.662 144.853C642.872 144.869 643.103 144.66 643.178 144.386Z" fill="#4B369D"/>
<path d="M640.2 138.861L639.767 138.643C639.586 138.552 639.334 138.688 639.204 138.947C639.074 139.206 639.115 139.49 639.296 139.581L639.729 139.798C639.91 139.889 640.162 139.753 640.292 139.494C640.423 139.236 640.381 138.952 640.2 138.861Z" fill="#4B369D"/>
<path d="M634.72 146.089C634.719 146.089 634.719 146.088 634.718 146.088L634.284 145.873C634.102 145.783 633.85 145.921 633.721 146.18C633.592 146.439 633.634 146.721 633.814 146.811C633.815 146.812 633.815 146.812 633.816 146.812L634.25 147.027C634.432 147.117 634.684 146.98 634.813 146.72C634.942 146.462 634.9 146.18 634.72 146.089Z" fill="#4B369D"/>
<path d="M641.944 139.744C641.9 139.717 641.853 139.692 641.807 139.669L641.499 139.514C641.318 139.423 641.066 139.559 640.936 139.818C640.805 140.077 640.847 140.361 641.028 140.452L641.336 140.607L641.336 140.606C641.373 140.625 641.409 140.645 641.445 140.666C641.449 140.668 641.454 140.671 641.459 140.673C641.633 140.761 641.877 140.638 642.012 140.39C642.15 140.135 642.12 139.846 641.944 139.744Z" fill="#4B369D"/>
<path d="M636.458 146.949C636.457 146.949 636.457 146.948 636.456 146.948L636.022 146.733C635.84 146.643 635.588 146.781 635.458 147.04C635.329 147.298 635.371 147.581 635.552 147.671C635.552 147.672 635.553 147.672 635.553 147.672L635.988 147.887C636.169 147.977 636.421 147.839 636.551 147.58C636.68 147.322 636.638 147.04 636.458 146.949Z" fill="#4B369D"/>
</g>
</g>
</g>
<defs>
<filter id="filter0_d" x="557.467" y="150.109" width="44.5419" height="45.3926" filterUnits="userSpaceOnUse" color-interpolation-filters="sRGB">
<feFlood flood-opacity="0" result="BackgroundImageFix"/>
<feColorMatrix in="SourceAlpha" type="matrix" values="0 0 0 0 0 0 0 0 0 0 0 0 0 0 0 0 0 0 127 0"/>
<feOffset dy="4"/>
<feGaussianBlur stdDeviation="2"/>
<feColorMatrix type="matrix" values="0 0 0 0 0 0 0 0 0 0 0 0 0 0 0 0 0 0 0.48 0"/>
<feBlend mode="normal" in2="BackgroundImageFix" result="effect1_dropShadow"/>
<feBlend mode="normal" in="SourceGraphic" in2="effect1_dropShadow" result="shape"/>
</filter>
<clipPath id="clip0">
<rect width="36.7373" height="40.8638" fill="white" transform="matrix(0.940111 -0.340868 0.35732 0.933982 556.806 159.25)"/>
</clipPath>
<clipPath id="clip1">
<rect width="57.7723" height="40.7273" fill="white" transform="translate(611.59 251.455)"/>
</clipPath>
<clipPath id="clip2">
<rect width="70.3931" height="38.6807" fill="white" transform="matrix(0.89988 0.436138 -0.455307 0.890335 646.391 174.763)"/>
</clipPath>
<clipPath id="clip3">
<rect width="69.8994" height="38.9589" fill="white" transform="matrix(0.741627 -0.670813 0.690418 0.723411 590.672 149.011)"/>
</clipPath>
<clipPath id="clip4">
<rect width="512" height="512" fill="white" transform="matrix(1.01326 0.000968592 0.000994945 0.986566 369.533 -99.1785)"/>
</clipPath>
<clipPath id="clip5">
<rect width="25.0251" height="35.7779" fill="white" transform="translate(633.074 109.036) rotate(26.6973)"/>
</clipPath>
</defs>
</svg>
