<svg width="207" height="82" viewBox="0 0 207 82" fill="none" xmlns="http://www.w3.org/2000/svg">
<g filter="url(#filter0_d)">
<path d="M99.491 44.65C101.158 44.75 101.991 45.5 101.991 46.9C101.991 47.7 101.658 48.3167 100.991 48.75C100.358 49.15 99.441 49.3167 98.241 49.25L96.891 49.15C91.291 48.75 88.491 45.75 88.491 40.15V29.25H85.991C85.091 29.25 84.391 29.05 83.891 28.65C83.4243 28.25 83.191 27.6667 83.191 26.9C83.191 26.1333 83.4243 25.55 83.891 25.15C84.391 24.75 85.091 24.55 85.991 24.55H88.491V19.95C88.491 19.05 88.7743 18.3333 89.341 17.8C89.9077 17.2667 90.6743 17 91.641 17C92.5743 17 93.3243 17.2667 93.891 17.8C94.4577 18.3333 94.741 19.05 94.741 19.95V24.55H98.991C99.891 24.55 100.574 24.75 101.041 25.15C101.541 25.55 101.791 26.1333 101.791 26.9C101.791 27.6667 101.541 28.25 101.041 28.65C100.574 29.05 99.891 29.25 98.991 29.25H94.741V40.6C94.741 43.0667 95.8743 44.3833 98.141 44.55L99.491 44.65ZM115.848 23.95C119.248 23.95 121.765 24.8 123.398 26.5C125.065 28.1667 125.898 30.7167 125.898 34.15V46.35C125.898 47.25 125.631 47.9667 125.098 48.5C124.565 49 123.831 49.25 122.898 49.25C122.031 49.25 121.315 48.9833 120.748 48.45C120.215 47.9167 119.948 47.2167 119.948 46.35V45.25C119.381 46.55 118.481 47.5667 117.248 48.3C116.048 49.0333 114.648 49.4 113.048 49.4C111.415 49.4 109.931 49.0667 108.598 48.4C107.265 47.7333 106.215 46.8167 105.448 45.65C104.681 44.4833 104.298 43.1833 104.298 41.75C104.298 39.95 104.748 38.5333 105.648 37.5C106.581 36.4667 108.081 35.7167 110.148 35.25C112.215 34.7833 115.065 34.55 118.698 34.55H119.948V33.4C119.948 31.7667 119.598 30.5833 118.898 29.85C118.198 29.0833 117.065 28.7 115.498 28.7C114.531 28.7 113.548 28.85 112.548 29.15C111.548 29.4167 110.365 29.8167 108.998 30.35C108.131 30.7833 107.498 31 107.098 31C106.498 31 105.998 30.7833 105.598 30.35C105.231 29.9167 105.048 29.35 105.048 28.65C105.048 28.0833 105.181 27.6 105.448 27.2C105.748 26.7667 106.231 26.3667 106.898 26C108.065 25.3667 109.448 24.8667 111.048 24.5C112.681 24.1333 114.281 23.95 115.848 23.95ZM114.298 44.9C115.965 44.9 117.315 44.35 118.348 43.25C119.415 42.1167 119.948 40.6667 119.948 38.9V37.85H119.048C116.815 37.85 115.081 37.95 113.848 38.15C112.615 38.35 111.731 38.7 111.198 39.2C110.665 39.7 110.398 40.3833 110.398 41.25C110.398 42.3167 110.765 43.2 111.498 43.9C112.265 44.5667 113.198 44.9 114.298 44.9ZM141.1 49.4C137.467 49.4 134.533 48.6833 132.3 47.25C131.233 46.6167 130.7 45.7167 130.7 44.55C130.7 43.8833 130.883 43.35 131.25 42.95C131.617 42.5167 132.067 42.3 132.6 42.3C133.167 42.3 133.95 42.5667 134.95 43.1C136.017 43.6 136.983 43.9833 137.85 44.25C138.75 44.5167 139.883 44.65 141.25 44.65C142.65 44.65 143.733 44.4167 144.5 43.95C145.3 43.4833 145.7 42.8333 145.7 42C145.7 41.4333 145.533 40.9833 145.2 40.65C144.9 40.3167 144.333 40.0167 143.5 39.75C142.7 39.45 141.467 39.1167 139.8 38.75C136.833 38.15 134.7 37.3 133.4 36.2C132.133 35.1 131.5 33.5833 131.5 31.65C131.5 30.1833 131.933 28.8667 132.8 27.7C133.667 26.5 134.85 25.5833 136.35 24.95C137.883 24.2833 139.617 23.95 141.55 23.95C142.95 23.95 144.3 24.1333 145.6 24.5C146.9 24.8333 148.067 25.3333 149.1 26C150.167 26.6667 150.7 27.55 150.7 28.65C150.7 29.3167 150.517 29.8833 150.15 30.35C149.783 30.7833 149.333 31 148.8 31C148.433 31 148.067 30.9333 147.7 30.8C147.367 30.6333 146.933 30.4 146.4 30.1C145.433 29.6 144.6 29.2333 143.9 29C143.2 28.7333 142.333 28.6 141.3 28.6C140.067 28.6 139.083 28.85 138.35 29.35C137.65 29.85 137.3 30.5333 137.3 31.4C137.3 32.2333 137.667 32.8667 138.4 33.3C139.133 33.7333 140.55 34.1667 142.65 34.6C144.883 35.0667 146.633 35.6 147.9 36.2C149.167 36.8 150.067 37.55 150.6 38.45C151.167 39.35 151.45 40.5 151.45 41.9C151.45 44.1667 150.5 45.9833 148.6 47.35C146.733 48.7167 144.233 49.4 141.1 49.4ZM178.268 44.15C178.934 44.7833 179.268 45.5 179.268 46.3C179.268 47.0667 178.984 47.75 178.418 48.35C177.884 48.95 177.251 49.25 176.518 49.25C175.784 49.25 175.101 48.95 174.468 48.35L162.768 37.75V46.3C162.768 47.2667 162.468 48 161.868 48.5C161.268 49 160.518 49.25 159.618 49.25C158.718 49.25 157.968 49 157.368 48.5C156.801 48 156.518 47.2667 156.518 46.3V16.45C156.518 15.4833 156.801 14.75 157.368 14.25C157.968 13.75 158.718 13.5 159.618 13.5C160.518 13.5 161.268 13.75 161.868 14.25C162.468 14.75 162.768 15.4833 162.768 16.45V35.25L173.468 25C174.068 24.4 174.751 24.1 175.518 24.1C176.284 24.1 176.951 24.3833 177.518 24.95C178.084 25.5167 178.368 26.1833 178.368 26.95C178.368 27.7167 178.051 28.4167 177.418 29.05L169.568 36.35L178.268 44.15ZM191.832 49.4C188.199 49.4 185.266 48.6833 183.032 47.25C181.966 46.6167 181.432 45.7167 181.432 44.55C181.432 43.8833 181.616 43.35 181.982 42.95C182.349 42.5167 182.799 42.3 183.332 42.3C183.899 42.3 184.682 42.5667 185.682 43.1C186.749 43.6 187.716 43.9833 188.582 44.25C189.482 44.5167 190.616 44.65 191.982 44.65C193.382 44.65 194.466 44.4167 195.232 43.95C196.032 43.4833 196.432 42.8333 196.432 42C196.432 41.4333 196.266 40.9833 195.932 40.65C195.632 40.3167 195.066 40.0167 194.232 39.75C193.432 39.45 192.199 39.1167 190.532 38.75C187.566 38.15 185.432 37.3 184.132 36.2C182.866 35.1 182.232 33.5833 182.232 31.65C182.232 30.1833 182.666 28.8667 183.532 27.7C184.399 26.5 185.582 25.5833 187.082 24.95C188.616 24.2833 190.349 23.95 192.282 23.95C193.682 23.95 195.032 24.1333 196.332 24.5C197.632 24.8333 198.799 25.3333 199.832 26C200.899 26.6667 201.432 27.55 201.432 28.65C201.432 29.3167 201.249 29.8833 200.882 30.35C200.516 30.7833 200.066 31 199.532 31C199.166 31 198.799 30.9333 198.432 30.8C198.099 30.6333 197.666 30.4 197.132 30.1C196.166 29.6 195.332 29.2333 194.632 29C193.932 28.7333 193.066 28.6 192.032 28.6C190.799 28.6 189.816 28.85 189.082 29.35C188.382 29.85 188.032 30.5333 188.032 31.4C188.032 32.2333 188.399 32.8667 189.132 33.3C189.866 33.7333 191.282 34.1667 193.382 34.6C195.616 35.0667 197.366 35.6 198.632 36.2C199.899 36.8 200.799 37.55 201.332 38.45C201.899 39.35 202.182 40.5 202.182 41.9C202.182 44.1667 201.232 45.9833 199.332 47.35C197.466 48.7167 194.966 49.4 191.832 49.4Z" fill="white"/>
</g>
<g filter="url(#filter1_d)">
<path d="M67.9739 18.7786V44.9078C67.9739 55.2784 59.5339 63.6863 49.1237 63.6863H47.217L37.4805 73.3795C37.0992 73.7594 36.5717 74 35.987 74C35.4467 74 34.9574 73.8037 34.5824 73.4745L34.4172 73.3099L34.4108 73.3036L24.7569 63.6863H22.8439C12.44 63.6863 4 55.2784 4 44.9078V18.7786C4 8.40794 12.44 0 22.8503 0H49.1237C59.5339 0 67.9739 8.40794 67.9739 18.7786Z" fill="#EBCDF4"/>
<path d="M44.609 46.725L57.0171 42.2953C58.3485 41.7964 59.9255 42.2677 60.598 43.5597C61.5112 45.3135 60.7118 47.2478 59.161 47.8925L40.1843 56.5694C38.6323 57.3023 36.9474 57.6818 35.243 57.6818C33.0801 57.6818 30.9572 57.0712 29.1029 55.9152L23.7911 52.6057C22.5652 51.8423 20.5653 51.4138 19.1406 51.3602C19.1406 51.3582 19.1406 36.5884 19.1406 36.5884H27.1811C28.2285 36.5884 29.2572 36.8678 30.1693 37.4013L35.5358 40.5361C35.8405 40.7141 36.1825 40.8072 36.532 40.8072H43.109C44.7919 40.8072 46.1558 42.2236 46.1558 43.9712C46.1558 45.1524 45.5334 46.1815 44.609 46.725Z" fill="white"/>
<path d="M19.1406 36.5884V51.3602C19.1375 52.5224 18.2297 53.463 17.1094 53.463H11.0156V34.479H17.1094C18.2317 34.479 19.1406 35.4229 19.1406 36.5884Z" fill="white"/>
<path d="M56.6799 41.3003L47.1052 44.7186C47.1477 44.4739 47.1715 44.2242 47.1715 43.9708C47.1715 41.6447 45.3493 39.7521 43.109 39.7521H36.532C36.3575 39.7521 36.1853 39.7055 36.0333 39.6165L30.6676 36.4825C29.6067 35.8617 28.4011 35.5333 27.1811 35.5333H19.9813C19.5623 34.306 18.4333 33.4244 17.1094 33.4244H11.0156C10.4547 33.4244 10 33.8965 10 34.479V53.463C10 54.0456 10.4547 54.5177 11.0156 54.5177H17.1094C18.4031 54.5177 19.5124 53.6735 19.9527 52.4878C21.1024 52.6362 22.4327 52.9892 23.2686 53.51L28.58 56.8195C30.5922 58.0736 32.896 58.7364 35.243 58.7364C37.1029 58.7364 38.9048 58.3311 40.5993 57.5318L59.5554 48.864C61.6548 47.9795 62.6915 45.3638 61.4914 43.0583C60.6087 41.3617 58.5413 40.6069 56.6799 41.3003ZM18.125 51.3586C18.1226 51.9378 17.6676 52.4083 17.1094 52.4083H12.0312V35.5337H17.1094C17.6692 35.5337 18.125 36.0067 18.125 36.5884V51.3586ZM58.7837 46.9132C58.773 46.9174 58.7623 46.9223 58.7516 46.9268C58.7516 46.9268 39.7673 55.6074 39.7638 55.6091C38.3336 56.2847 36.8125 56.6271 35.243 56.6271C33.2642 56.6271 31.3218 56.0684 29.6254 55.0108L24.3136 51.7014C23.1765 50.9931 21.5484 50.5614 20.1562 50.3884V37.6431H27.1811C28.0523 37.6431 28.9132 37.8771 29.6714 38.3208L35.0371 41.4548C35.4918 41.721 36.0091 41.8619 36.532 41.8619H43.109C44.2289 41.8619 45.1402 42.8078 45.1402 43.9712C45.1402 45.1302 44.2285 46.0806 43.109 46.0806H32.7845C32.2235 46.0806 31.7689 46.5527 31.7689 47.1353C31.7689 47.7174 32.2235 48.1896 32.7845 48.1896H43.109C43.7751 48.1896 44.4309 48.0178 45.0129 47.6956C45.0129 47.6956 57.3571 43.289 57.3618 43.2873C58.2719 42.9462 59.3011 43.2857 59.7045 44.061C60.3095 45.2233 59.8093 46.4868 58.7837 46.9132Z" fill="#6F6F6F"/>
<path d="M46.7156 11.0547C50.6175 11.0547 53.3069 14.4561 53.3069 18.4849C53.3069 23.816 48.4664 27.385 40.245 34.7847C32.4267 27.748 26.9395 24.0578 26.9395 18.4849C26.9395 14.4561 29.6289 11.0547 33.532 11.0547C38.541 11.0547 40.1232 16.9869 40.1232 16.9869C40.1232 16.9869 41.7054 11.0547 46.7156 11.0547Z" fill="white"/>
<path d="M15.0781 37.6431C14.5175 37.6431 14.0625 38.1157 14.0625 38.6978C14.0625 39.2799 14.5175 39.7525 15.0781 39.7525C15.6387 39.7525 16.0938 39.2799 16.0938 38.6978C16.0938 38.1157 15.6387 37.6431 15.0781 37.6431Z" fill="#6F6F6F"/>
<path d="M39.5797 35.5819C39.7709 35.7537 40.0077 35.8394 40.245 35.8394C40.4822 35.8394 40.7195 35.7537 40.9103 35.5819C49.1968 28.1241 54.3225 24.3499 54.3225 18.4849C54.3225 13.8451 51.1594 10 46.7156 10C43.7973 10 41.5625 11.7468 40.1232 14.3683C38.687 11.7526 36.4546 10 33.5319 10C30.13 10 27.2858 12.2894 26.2861 15.8321C26.1282 16.3912 26.4368 16.977 26.9752 17.141C27.5136 17.3049 28.0777 16.9844 28.2352 16.4254C28.9751 13.8035 31.054 12.1094 33.5319 12.1094C36.4292 12.1094 38.4617 14.7811 39.1445 17.2687C39.2663 17.7256 39.667 18.042 40.1232 18.042C40.5798 18.042 40.9801 17.7256 41.1019 17.2687C41.1158 17.2172 42.5266 12.1094 46.7156 12.1094C49.8942 12.1094 52.2913 14.8499 52.2913 18.4849C52.2913 23.1766 47.8749 26.559 40.2442 33.3914C35.5949 29.2452 31.9018 26.3266 29.8027 23.4716C29.4623 23.0085 28.8252 22.9195 28.3792 23.273C27.9333 23.6265 27.848 24.2881 28.188 24.7516C30.5541 27.9697 34.5484 31.053 39.5797 35.5819Z" fill="#6F6F6F"/>
<path d="M27.1641 19.2915C26.6035 19.2915 26.1484 19.7641 26.1484 20.3462C26.1484 20.9284 26.6035 21.4009 27.1641 21.4009C27.7246 21.4009 28.1797 20.9284 28.1797 20.3462C28.1797 19.7641 27.7246 19.2915 27.1641 19.2915Z" fill="#6F6F6F"/>
</g>
<defs>
<filter id="filter0_d" x="79.191" y="13.5" width="126.991" height="43.9" filterUnits="userSpaceOnUse" color-interpolation-filters="sRGB">
<feFlood flood-opacity="0" result="BackgroundImageFix"/>
<feColorMatrix in="SourceAlpha" type="matrix" values="0 0 0 0 0 0 0 0 0 0 0 0 0 0 0 0 0 0 127 0"/>
<feOffset dy="4"/>
<feGaussianBlur stdDeviation="2"/>
<feColorMatrix type="matrix" values="0 0 0 0 0 0 0 0 0 0 0 0 0 0 0 0 0 0 0.25 0"/>
<feBlend mode="normal" in2="BackgroundImageFix" result="effect1_dropShadow"/>
<feBlend mode="normal" in="SourceGraphic" in2="effect1_dropShadow" result="shape"/>
</filter>
<filter id="filter1_d" x="0" y="0" width="71.9739" height="82" filterUnits="userSpaceOnUse" color-interpolation-filters="sRGB">
<feFlood flood-opacity="0" result="BackgroundImageFix"/>
<feColorMatrix in="SourceAlpha" type="matrix" values="0 0 0 0 0 0 0 0 0 0 0 0 0 0 0 0 0 0 127 0"/>
<feOffset dy="4"/>
<feGaussianBlur stdDeviation="2"/>
<feColorMatrix type="matrix" values="0 0 0 0 0 0 0 0 0 0 0 0 0 0 0 0 0 0 0.48 0"/>
<feBlend mode="normal" in2="BackgroundImageFix" result="effect1_dropShadow"/>
<feBlend mode="normal" in="SourceGraphic" in2="effect1_dropShadow" result="shape"/>
</filter>
</defs>
</svg>
