<svg width="72" height="82" viewBox="0 0 72 82" fill="none" xmlns="http://www.w3.org/2000/svg">
<g filter="url(#filter0_d)">
<path d="M67.9739 18.7786V44.9078C67.9739 55.2784 59.5339 63.6863 49.1237 63.6863H47.217L37.4805 73.3795C37.0992 73.7594 36.5717 74 35.987 74C35.4467 74 34.9574 73.8037 34.5824 73.4745L34.4172 73.3099L34.4108 73.3036L24.7569 63.6863H22.8439C12.44 63.6863 4 55.2784 4 44.9078V18.7786C4 8.40794 12.44 0 22.8503 0H49.1237C59.5339 0 67.9739 8.40794 67.9739 18.7786Z" fill="#EBCDF4"/>
<path d="M44.609 44.8304L57.0171 40.4007C58.3485 39.9018 59.9255 40.3731 60.598 41.6651C61.5112 43.4189 60.7118 45.3532 59.161 45.998L40.1843 54.6748C38.6323 55.4077 36.9474 55.7872 35.243 55.7872C33.0801 55.7872 30.9572 55.1766 29.1029 54.0206L23.7911 50.7111C22.5652 49.9477 20.5653 49.5192 19.1406 49.4657C19.1406 49.4636 19.1406 34.6939 19.1406 34.6939H27.1811C28.2285 34.6939 29.2572 34.9732 30.1693 35.5067L35.5358 38.6415C35.8405 38.8195 36.1825 38.9126 36.532 38.9126H43.109C44.7919 38.9126 46.1559 40.329 46.1559 42.0767C46.1559 43.2578 45.5334 44.287 44.609 44.8304Z" fill="white"/>
<path d="M46.7156 9.16011C50.6175 9.16011 53.3069 12.5615 53.3069 16.5903C53.3069 21.9214 48.4664 25.4905 40.245 32.8902C32.4267 25.8534 26.9395 22.1633 26.9395 16.5903C26.9395 12.5615 29.6289 9.16011 33.532 9.16011C38.5411 9.16011 40.1232 15.0923 40.1232 15.0923C40.1232 15.0923 41.7054 9.16011 46.7156 9.16011V9.16011Z" fill="white"/>
<path d="M19.1406 34.6938V49.4657C19.1375 50.6279 18.2297 51.5684 17.1094 51.5684H11.0156V32.5845H17.1094C18.2317 32.5845 19.1406 33.5283 19.1406 34.6938Z" fill="white"/>
<path d="M15.0781 35.7485C14.5176 35.7485 14.0625 36.2211 14.0625 36.8032C14.0625 37.3854 14.5176 37.8579 15.0781 37.8579C15.6387 37.8579 16.0938 37.3854 16.0938 36.8032C16.0938 36.2211 15.6387 35.7485 15.0781 35.7485Z" fill="#6F6F6F"/>
<path d="M56.6799 39.4057L47.1052 42.824C47.1477 42.5793 47.1715 42.3296 47.1715 42.0762C47.1715 39.7502 45.3493 37.8575 43.109 37.8575H36.532C36.3575 37.8575 36.1853 37.8109 36.0333 37.722L30.6676 34.588C29.6067 33.9671 28.4011 33.6387 27.1811 33.6387H19.9813C19.5624 32.4114 18.4333 31.5298 17.1094 31.5298H11.0156C10.4547 31.5298 10 32.0019 10 32.5845V51.5684C10 52.151 10.4547 52.6231 11.0156 52.6231H17.1094C18.4031 52.6231 19.5124 51.779 19.9527 50.5933C21.1025 50.7416 22.4327 51.0946 23.2686 51.6154L28.58 54.9249C30.5922 56.179 32.896 56.8419 35.243 56.8419C37.1029 56.8419 38.9049 56.4365 40.5993 55.6372L59.5554 46.9694C61.6548 46.0849 62.6915 43.4692 61.4914 41.1637C60.6087 39.4671 58.5413 38.7124 56.6799 39.4057V39.4057ZM18.125 49.464C18.1226 50.0433 17.6676 50.5137 17.1094 50.5137H12.0313V33.6392H17.1094C17.6692 33.6392 18.125 34.1121 18.125 34.6938V49.464ZM58.7837 45.0187C58.773 45.0228 58.7623 45.0277 58.7516 45.0323C58.7516 45.0323 39.7673 53.7128 39.7638 53.7145C38.3336 54.3901 36.8125 54.7325 35.243 54.7325C33.2642 54.7325 31.3218 54.1738 29.6254 53.1163L24.3136 49.8068C23.1765 49.0986 21.5484 48.6668 20.1563 48.4938V35.7485H27.1811C28.0523 35.7485 28.9132 35.9825 29.6714 36.4263L35.0371 39.5602C35.4918 39.8264 36.0091 39.9673 36.532 39.9673H43.109C44.2289 39.9673 45.1402 40.9132 45.1402 42.0767C45.1402 43.2356 44.2285 44.186 43.109 44.186H32.7845C32.2235 44.186 31.7689 44.6582 31.7689 45.2407C31.7689 45.8229 32.2235 46.295 32.7845 46.295H43.109C43.7751 46.295 44.4309 46.1232 45.0129 45.801C45.0129 45.801 57.3571 41.3944 57.3619 41.3928C58.2719 41.0516 59.3011 41.3911 59.7045 42.1665C60.3095 43.3287 59.8093 44.5923 58.7837 45.0187V45.0187Z" fill="#6F6F6F"/>
<path d="M39.5797 33.6874C39.7709 33.8592 40.0078 33.9449 40.245 33.9449C40.4822 33.9449 40.7195 33.8592 40.9103 33.6874C49.1968 26.2296 54.3225 22.4554 54.3225 16.5903C54.3225 11.9505 51.1594 8.10542 46.7156 8.10542C43.7973 8.10542 41.5625 9.85225 40.1232 12.4737C38.687 9.85802 36.4547 8.10542 33.532 8.10542C30.13 8.10542 27.2859 10.3948 26.2861 13.9375C26.1282 14.4966 26.4369 15.0824 26.9752 15.2464C27.5136 15.4104 28.0777 15.0898 28.2352 14.5308C28.9751 11.9089 31.054 10.2148 33.532 10.2148C36.4293 10.2148 38.4617 12.8865 39.1445 15.3741C39.2663 15.831 39.667 16.1474 40.1232 16.1474C40.5798 16.1474 40.9801 15.831 41.1019 15.3741C41.1158 15.3226 42.5266 10.2148 46.7156 10.2148C49.8942 10.2148 52.2913 12.9553 52.2913 16.5903C52.2913 21.282 47.8749 24.6644 40.2442 31.4968C35.5949 27.3506 31.9018 24.4321 29.8027 21.577C29.4623 21.1139 28.8252 21.0249 28.3792 21.3784C27.9333 21.7319 27.848 22.3936 28.188 22.857C30.5541 26.0751 34.5484 29.1584 39.5797 33.6874V33.6874Z" fill="#6F6F6F"/>
<path d="M27.1641 17.397C26.6035 17.397 26.1484 17.8695 26.1484 18.4517C26.1484 19.0338 26.6035 19.5063 27.1641 19.5063C27.7246 19.5063 28.1797 19.0338 28.1797 18.4517C28.1797 17.8695 27.7246 17.397 27.1641 17.397Z" fill="#6F6F6F"/>
</g>
<defs>
<filter id="filter0_d" x="0" y="0" width="71.9739" height="82" filterUnits="userSpaceOnUse" color-interpolation-filters="sRGB">
<feFlood flood-opacity="0" result="BackgroundImageFix"/>
<feColorMatrix in="SourceAlpha" type="matrix" values="0 0 0 0 0 0 0 0 0 0 0 0 0 0 0 0 0 0 127 0"/>
<feOffset dy="4"/>
<feGaussianBlur stdDeviation="2"/>
<feColorMatrix type="matrix" values="0 0 0 0 0 0 0 0 0 0 0 0 0 0 0 0 0 0 0.48 0"/>
<feBlend mode="normal" in2="BackgroundImageFix" result="effect1_dropShadow"/>
<feBlend mode="normal" in="SourceGraphic" in2="effect1_dropShadow" result="shape"/>
</filter>
</defs>
</svg>
