<svg width="72" height="82" viewBox="0 0 72 82" fill="none" xmlns="http://www.w3.org/2000/svg">
<g filter="url(#filter0_d)">
<path d="M67.9739 18.7786V44.9078C67.9739 55.2784 59.5339 63.6863 49.1237 63.6863H47.217L37.4805 73.3795C37.0992 73.7594 36.5717 74 35.987 74C35.4467 74 34.9574 73.8037 34.5824 73.4745L34.4172 73.3099L34.4108 73.3036L24.7569 63.6863H22.8439C12.44 63.6863 4 55.2784 4 44.9078V18.7786C4 8.40794 12.44 0 22.8503 0H49.1237C59.5339 0 67.9739 8.40794 67.9739 18.7786Z" fill="#EBCDF4"/>
<g filter="url(#filter1_d)">
<path d="M18.895 36.197C17.0392 36.197 15.9814 38.3036 17.0582 39.8248C21.2449 45.7501 28.1677 49.6133 35.99 49.6133C43.8123 49.6133 50.7289 45.7437 54.9155 39.8248C55.9923 38.3036 54.9345 36.197 53.0787 36.197H18.895Z" fill="#FFFDFD"/>
<path d="M29.764 27.2298H18.5658V21.6036C18.5658 18.4977 21.074 15.9774 24.1649 15.9774C27.2558 15.9774 29.764 18.4977 29.764 21.6036V27.2298Z" fill="#FFFDFD"/>
<path d="M53.4148 27.2298H42.2166V21.6036C42.2166 18.4977 44.7248 15.9774 47.8157 15.9774C50.9066 15.9774 53.4148 18.4977 53.4148 21.6036V27.2298Z" fill="#FFFDFD"/>
</g>
</g>
<defs>
<filter id="filter0_d" x="0" y="0" width="71.9739" height="82" filterUnits="userSpaceOnUse" color-interpolation-filters="sRGB">
<feFlood flood-opacity="0" result="BackgroundImageFix"/>
<feColorMatrix in="SourceAlpha" type="matrix" values="0 0 0 0 0 0 0 0 0 0 0 0 0 0 0 0 0 0 127 0"/>
<feOffset dy="4"/>
<feGaussianBlur stdDeviation="2"/>
<feColorMatrix type="matrix" values="0 0 0 0 0 0 0 0 0 0 0 0 0 0 0 0 0 0 0.48 0"/>
<feBlend mode="normal" in2="BackgroundImageFix" result="effect1_dropShadow"/>
<feBlend mode="normal" in="SourceGraphic" in2="effect1_dropShadow" result="shape"/>
</filter>
<filter id="filter1_d" x="12.6263" y="12.9774" width="46.721" height="41.636" filterUnits="userSpaceOnUse" color-interpolation-filters="sRGB">
<feFlood flood-opacity="0" result="BackgroundImageFix"/>
<feColorMatrix in="SourceAlpha" type="matrix" values="0 0 0 0 0 0 0 0 0 0 0 0 0 0 0 0 0 0 127 0"/>
<feOffset dy="1"/>
<feGaussianBlur stdDeviation="2"/>
<feColorMatrix type="matrix" values="0 0 0 0 0 0 0 0 0 0 0 0 0 0 0 0 0 0 0.25 0"/>
<feBlend mode="normal" in2="BackgroundImageFix" result="effect1_dropShadow"/>
<feBlend mode="normal" in="SourceGraphic" in2="effect1_dropShadow" result="shape"/>
</filter>
</defs>
</svg>
